PathFileType	4	(X/Y/Z)	C:/Users/opensim2020/Desktop/walking_exp_matlab/subject06_walking19_straight_02.trc																																																																																																																																																	
DataRate	CameraRate	NumFrames	NumMarkers	Units	OrigDataRate	OrigDataStartFrame	OrigNumFrames																																																																																																																																													
100	100	9	49	mm	100	2442	332																																																																																																																																													
Frame#	Time	LFHD			RFHD			LBHD			RBHD			C7			T10			CLAV			STRN			RBAK			LSHO			LUPA			LELB			LFRM			LWRA			LWRB			LFIN			RSHO			RUPA			RELB			RFRM			RWRA			RWRB			RFIN			LASI			RASI			LPSI			RPSI			LTHI			LKNE			LTIB			LANK			LHEE			LTOE			RTHI			RKNE			RTIB			RANK			RHEE			RTOE			*39			*40			*41			*42			*43			*44			*45			*46			*47			*48		
		X1	Y1	Z1	X2	Y2	Z2	X3	Y3	Z3	X4	Y4	Z4	X5	Y5	Z5	X6	Y6	Z6	X7	Y7	Z7	X8	Y8	Z8	X9	Y9	Z9	X10	Y10	Z10	X11	Y11	Z11	X12	Y12	Z12	X13	Y13	Z13	X14	Y14	Z14	X15	Y15	Z15	X16	Y16	Z16	X17	Y17	Z17	X18	Y18	Z18	X19	Y19	Z19	X20	Y20	Z20	X21	Y21	Z21	X22	Y22	Z22	X23	Y23	Z23	X24	Y24	Z24	X25	Y25	Z25	X26	Y26	Z26	X27	Y27	Z27	X28	Y28	Z28	X29	Y29	Z29	X30	Y30	Z30	X31	Y31	Z31	X32	Y32	Z32	X33	Y33	Z33	X34	Y34	Z34	X35	Y35	Z35	X36	Y36	Z36	X37	Y37	Z37	X38	Y38	Z38	X39	Y39	Z39	X40	Y40	Z40	X41	Y41	Z41	X42	Y42	Z42	X43	Y43	Z43	X44	Y44	Z44	X45	Y45	Z45	X46	Y46	Z46	X47	Y47	Z47	X48	Y48	Z48	X49	Y49	Z49
																																																																																																																																																				
250	2.49	208.81728	1672.28149	967.79388	221.39525	1662.18774	1098.96167	81.14902	1606.74768	979.24048	95.03167	1602.21851	1108.47388	93.6905	1456.34644	1032.22424	60.484	1127.26001	1039.58923	203.91356	1380.71069	1026.25134	243.62755	1205.3562	1017.43054	28.00211	1285.20569	1117.50073	143.70317	1412.23547	866.84467	132.75043	1208.09692	796.81409	125.25184	1095.38037	786.8645	152.97354	948.75061	759.79156	226.7762	838.66663	789.46002	161.32164	829.58173	763.00409	207.72195	752.01935	753.91943	170.42097	1409.81543	1189.62671	153.34911	1210.35278	1280.93005	177.33621	1091.72913	1295.16174	228.25497	983.76697	1308.34302	330.43286	875.70599	1268.60413	281.82645	857.3028	1310.57898	342.9256	799.41858	1309.03821	236.30267	973.95959	918.98663	243.22813	970.9729	1138.84229	78.38113	995.61035	951.23798	89.9311	996.77979	1119.80798	210.77977	658.99432	848.91351	250.08382	500.71121	872.30542	216.35812	247.72852	873.63	221.23944	73.97307	907.88879	189.44345	55.20145	958.73755	362.67584	50.44444	891.3161	176.18443	633.31519	1181.41382	170.83189	507.79523	1155.23511	96.57673	250.19069	1146.4469	58.61959	67.45809	1096.49927	14.55942	44.89298	1054.22974	210.11038	32.09794	1086.05859	111.48716	1702.37732	1035.91797	NaN	NaN	NaN	NaN	NaN	NaN	NaN	NaN	NaN	NaN	NaN	NaN	NaN	NaN	NaN	NaN	NaN	NaN	NaN	NaN	NaN	NaN	NaN	NaN	NaN	NaN	NaN
251	2.5	214.87999	1671.63025	966.94806	227.43782	1661.66589	1098.14575	87.07073	1606.45984	978.56769	100.93259	1602.03772	1107.75024	99.10413	1455.92554	1031.9624	66.01344	1126.82507	1039.61694	209.38515	1380.16724	1025.94373	249.0975	1204.83289	1017.37201	33.4583	1284.91443	1117.29871	149.29572	1411.52954	866.52832	137.14816	1207.48083	796.53754	128.60196	1094.83862	786.69208	154.54762	947.96802	759.40796	226.75127	836.81952	789.10297	161.45898	828.72644	762.43573	206.64297	750.35461	753.43512	175.93358	1409.53711	1189.21204	158.66537	1210.25476	1281.01404	182.66211	1091.75256	1295.42932	234.37234	984.23553	1308.51733	337.51733	877.29053	1268.58801	289.05917	858.35675	1310.55591	350.77753	801.0387	1308.91528	242.14841	973.65271	919.21307	248.42152	970.38977	1138.99646	84.0713	995.18481	951.11005	95.24953	996.21637	1119.74805	217.92175	659.29156	848.11121	258.55811	501.34094	871.42389	231.08098	247.39667	872.52673	239.72102	73.78168	907.0376	207.70834	54.42102	957.41034	382.34537	52.91581	892.63776	180.6021	632.62939	1181.03699	174.91559	507.25409	1154.87256	98.61165	250.00015	1146.08228	58.88245	67.57921	1096.17004	13.79744	45.72663	1054.33887	210.38091	32.02562	1086.03979	117.6224	1702.05786	1035.12585	NaN	NaN	NaN	NaN	NaN	NaN	NaN	NaN	NaN	NaN	NaN	NaN	NaN	NaN	NaN	NaN	NaN	NaN	NaN	NaN	NaN	NaN	NaN	NaN	NaN	NaN	NaN
252	2.51	220.85922	1670.92249	966.09912	233.47157	1661.20984	1097.27759	92.86079	1606.047	977.85846	107.12669	1601.84363	1106.75452	104.74716	1455.63525	1031.47144	71.52398	1126.32715	1039.53638	214.93875	1379.59888	1025.58984	254.58423	1204.28101	1017.30408	38.9897	1284.54504	1117.0321	154.87341	1410.82446	866.04694	141.63002	1206.85388	796.24957	132.09848	1094.3269	786.41083	156.41428	947.24438	758.9848	227.44685	835.16431	788.3609	161.8246	827.84833	761.75165	205.89594	748.75916	752.91461	181.40034	1409.24951	1188.85071	163.74445	1210.14514	1280.85767	187.87312	1091.73743	1295.61963	240.38148	984.65625	1308.61865	344.40457	878.67676	1268.50964	296.18512	859.3017	1310.48499	358.32809	802.49506	1308.70679	247.99019	973.34381	919.40601	253.60143	969.80518	1139.13306	89.75703	994.76324	950.98413	100.50012	995.62866	1119.66821	225.08055	659.40106	847.4588	266.97092	501.90356	870.6817	245.4735	247.25113	871.46918	257.79272	73.79672	906.1731	224.92595	54.08786	955.51068	401.21085	55.57379	894.15527	184.9675	631.90167	1180.69214	178.89598	506.47623	1154.44312	100.75254	249.83307	1145.59241	59.26689	67.76572	1096.11621	13.89983	46.04344	1054.18933	210.498	31.98495	1085.92908	123.722	1701.68127	1034.19727	NaN	NaN	NaN	NaN	NaN	NaN	NaN	NaN	NaN	NaN	NaN	NaN	NaN	NaN	NaN	NaN	NaN	NaN	NaN	NaN	NaN	NaN	NaN	NaN	NaN	NaN	NaN
253	2.52	226.97589	1670.0791	965.26373	239.50099	1660.67627	1096.40344	98.7203	1605.64136	977.18024	112.7606	1601.62781	1106.36792	110.44208	1455.16248	1030.8595	76.94656	1125.85681	1039.4613	220.5975	1379.05847	1025.13281	260.06424	1203.67578	1017.20825	44.35568	1284.20239	1116.74988	160.55882	1410.08398	865.56439	146.20993	1206.20947	795.93182	135.6869	1093.74915	786.09351	157.97766	946.47906	758.60675	227.99951	833.51331	787.9035	162.41985	827.08801	761.09979	205.52715	747.41779	752.40375	186.95444	1408.94934	1188.41113	169.18309	1210.00208	1280.84375	193.15141	1091.6593	1295.68042	246.29385	985.02924	1308.67151	351.13281	879.96112	1268.30701	303.12045	860.15674	1310.32959	365.70514	803.80847	1308.46545	253.91602	973.01147	919.56732	258.83139	969.12738	1139.26636	95.53683	994.30017	950.80896	106.6286	994.67377	1119.16589	231.75967	659.45624	846.82916	275.33075	502.45352	870.07953	259.59442	247.21007	870.63989	275.43021	73.98248	905.23999	244.70773	51.89576	956.59326	419.57245	58.44174	895.24866	189.84656	630.75897	1180.30322	183.09363	505.73752	1153.94104	103.01579	249.60403	1145.17029	59.59809	67.95152	1095.96484	13.98944	46.40332	1054.03149	210.61316	31.95064	1085.84534	129.83549	1701.29785	1033.25439	NaN	NaN	NaN	NaN	NaN	NaN	NaN	NaN	NaN	NaN	NaN	NaN	NaN	NaN	NaN	NaN	NaN	NaN	NaN	NaN	NaN	NaN	NaN	NaN	NaN	NaN	NaN
254	2.53	233.01125	1669.28467	964.29395	245.59741	1660.14795	1095.44641	104.70705	1605.16541	976.32391	118.67612	1601.38696	1105.52979	116.35625	1454.38831	1030.19458	82.54272	1125.24561	1039.25452	226.19997	1378.38916	1024.7323	265.64386	1203.04382	1017.09393	49.9674	1283.87952	1116.35999	166.23276	1409.30432	865.0838	150.74794	1205.50317	795.552	139.31511	1093.19092	785.73883	160.46719	945.44574	758.27307	228.86626	831.98444	787.36121	163.24034	826.44086	760.28986	205.4167	745.99078	751.88379	192.55685	1408.57422	1187.92664	174.45624	1209.82068	1280.68933	198.33049	1091.58008	1295.75244	252.13191	985.28418	1308.61182	357.72424	881.04065	1268.05713	309.84207	860.79828	1310.05481	372.82605	804.98639	1308.2677	259.79257	972.57556	919.70923	263.99341	968.49078	1139.36865	101.31822	993.81879	950.54523	111.25452	994.37695	1119.24829	238.85298	659.7207	846.36688	283.60571	502.94931	869.69678	273.42865	247.35515	870.02258	292.64536	74.37064	904.2384	261.74374	51.56658	955.18463	437.21793	61.40781	896.01331	194.52625	630.06757	1179.75464	187.35811	504.9505	1153.37708	105.27773	249.39018	1144.68286	59.93345	68.11428	1095.79626	14.11275	46.71898	1053.90051	210.71054	31.9159	1085.80774	135.9584	1700.84839	1032.29578	NaN	NaN	NaN	NaN	NaN	NaN	NaN	NaN	NaN	NaN	NaN	NaN	NaN	NaN	NaN	NaN	NaN	NaN	NaN	NaN	NaN	NaN	NaN	NaN	NaN	NaN	NaN
255	2.54	239.03703	1668.46045	963.29614	251.6364	1659.52991	1094.41101	110.52998	1604.54675	975.49707	124.63324	1601.02026	1104.63879	121.97604	1454.15588	1029.80176	88.08305	1124.70081	1039.04419	231.88615	1377.71423	1024.26355	271.26138	1202.34436	1016.93994	55.59714	1283.39758	1115.98389	171.91457	1408.48682	864.5799	155.25604	1204.78528	795.14417	142.98085	1092.67139	785.40216	162.32205	944.89209	757.41559	230.02107	830.50806	786.82758	164.35597	825.68384	759.65735	205.55887	744.7785	751.37482	198.18202	1408.18237	1187.42749	179.59235	1209.55688	1280.32947	203.55972	1091.43665	1295.68372	257.8566	985.46033	1308.48523	364.13031	881.98499	1267.70532	316.42773	861.48077	1309.84094	379.79416	805.987	1307.755	265.70581	972.09796	919.79626	269.18533	967.78809	1139.39038	107.11105	993.31018	950.13245	117.23704	993.38275	1118.59839	245.9778	659.61566	845.82477	291.80911	503.43362	869.43268	286.4798	247.58331	868.97968	309.37656	74.86256	903.11169	278.51602	51.31038	953.75043	454.3996	64.44197	896.25165	199.26689	629.36835	1179.0918	191.66925	504.16608	1152.8269	107.58595	249.1501	1144.31897	60.22556	68.34061	1095.68469	14.21342	47.03537	1053.8291	210.92947	31.85097	1085.79773	142.06102	1700.34119	1031.21802	NaN	NaN	NaN	NaN	NaN	NaN	NaN	NaN	NaN	NaN	NaN	NaN	NaN	NaN	NaN	NaN	NaN	NaN	NaN	NaN	NaN	NaN	NaN	NaN	NaN	NaN	NaN
256	2.55	245.05716	1667.62256	962.21448	257.63403	1658.91528	1093.37769	116.47904	1603.953	974.58423	130.59511	1600.61475	1103.79651	127.59073	1453.42883	1029.2312	93.53973	1124.10168	1038.74316	237.68086	1377.01721	1023.7384	276.89468	1201.58679	1016.77295	61.17959	1282.96606	1115.52942	177.63876	1407.64685	864.01477	159.73521	1204.07678	794.71692	146.52545	1092.16406	785.03687	164.7625	944.22327	756.99188	231.42427	829.0838	786.22888	165.72438	824.98816	759.01776	206.09203	743.59174	750.82935	203.82796	1407.75122	1186.89648	185.09631	1209.18738	1280.078	208.72417	1091.22498	1295.52673	263.51529	985.5639	1308.29578	370.37054	882.76227	1267.3075	322.88611	861.8847	1309.43054	386.50937	806.86017	1307.32507	271.64194	971.57599	919.86957	274.28845	967.02802	1139.37183	112.96175	992.72308	949.67139	121.76948	992.99957	1118.44165	253.10312	659.46887	845.3913	299.87668	503.76852	869.34198	299.37	247.83826	868.1322	325.67184	75.42674	902.00031	294.88074	51.27555	952.40442	470.92224	67.45645	896.20624	203.95982	628.61182	1178.35864	195.93234	503.37155	1152.35254	109.81023	248.96706	1143.98804	60.55513	68.52429	1095.59961	14.28685	47.42881	1053.79822	210.8436	31.76222	1085.63953	148.07484	1699.74658	1030.13782	NaN	NaN	NaN	NaN	NaN	NaN	NaN	NaN	NaN	NaN	NaN	NaN	NaN	NaN	NaN	NaN	NaN	NaN	NaN	NaN	NaN	NaN	NaN	NaN	NaN	NaN	NaN
257	2.56	250.95424	1666.7738	961.06635	263.78677	1658.24402	1092.22546	122.42033	1603.21729	973.70929	136.64664	1600.10339	1102.90112	133.49844	1452.84863	1028.51709	99.1171	1123.46228	1038.27234	243.45642	1376.22522	1023.23053	282.57309	1200.76392	1016.59052	66.69834	1282.45117	1115.15393	183.38031	1406.75659	863.43652	164.2394	1203.34375	794.27197	150.39185	1091.53113	784.5788	167.11603	943.49786	756.289	233.04059	827.7381	785.59869	167.30235	824.24298	758.53156	207.06905	742.41254	750.16406	209.5481	1407.21973	1186.28699	190.36185	1208.79797	1279.52649	213.89101	1090.97644	1295.32397	269.15103	985.55182	1308.0061	376.49576	883.41425	1266.81567	329.11148	862.29626	1309.01477	392.88153	807.40137	1306.65747	277.65311	971.01526	919.91638	279.42749	966.23792	1139.38635	118.85268	992.03815	949.16473	127.81094	991.84186	1117.58716	260.92871	659.35486	844.7326	307.91037	504.0397	869.23114	311.98087	248.01399	867.44196	341.54034	76.02093	900.89417	310.96259	51.18074	951.11774	486.97705	70.38761	895.95172	208.62579	627.80725	1177.71533	200.24301	502.54218	1151.83362	111.97982	248.72844	1143.79614	60.84128	68.71742	1095.58423	15.12389	47.17707	1053.79089	210.99937	31.72671	1085.57043	154.23741	1699.09863	1028.96094	NaN	NaN	NaN	NaN	NaN	NaN	NaN	NaN	NaN	NaN	NaN	NaN	NaN	NaN	NaN	NaN	NaN	NaN	NaN	NaN	NaN	NaN	NaN	NaN	NaN	NaN	NaN
258	2.57	256.99252	1665.83167	959.94873	269.7883	1657.58313	1091.17761	128.39888	1602.36658	972.74176	142.62241	1599.45557	1101.88428	139.71577	1451.85303	1027.52393	104.64488	1122.78467	1037.85535	249.38632	1375.40625	1022.67041	288.23227	1199.87561	1016.37488	72.40686	1282.08777	1114.48279	189.19708	1405.8147	862.82697	168.82584	1202.57141	793.79028	154.36317	1090.75793	784.12189	169.98512	942.66364	755.97034	235.52649	826.73975	784.91656	169.25443	823.42877	757.82971	208.23619	741.34796	749.54919	215.30556	1406.63367	1185.64893	195.74896	1208.43628	1279.32971	219.01559	1090.6637	1295.06909	274.62973	985.43469	1307.65271	382.35208	883.81262	1266.20251	335.18625	862.50281	1308.47986	399.34546	807.94904	1306.06213	283.65378	970.2489	919.89716	284.60413	965.43817	1139.52869	124.80555	991.27521	948.51672	132.38362	991.32391	1117.2804	267.60281	658.87921	844.49896	315.70755	504.16992	869.12653	323.9296	248.14977	866.58545	356.80096	76.68289	899.59119	326.68735	51.17482	949.927	502.64175	73.13322	895.31506	213.35712	626.95703	1177.09216	204.59518	501.66409	1151.31396	114.24171	248.48198	1143.53503	61.13725	68.94551	1095.6178	14.40557	48.21021	1053.96704	211.08348	31.65467	1085.56226	160.27936	1698.36023	1027.84021	NaN	NaN	NaN	NaN	NaN	NaN	NaN	NaN	NaN	NaN	NaN	NaN	NaN	NaN	NaN	NaN	NaN	NaN	NaN	NaN	NaN	NaN	NaN	NaN	NaN	NaN	NaN
